<?xml version="1.0" encoding="UTF-8"?>
<!DOCTYPE svg PUBLIC "-//W3C//DTD SVG 1.1//EN" "http://www.w3.org/Graphics/SVG/1.1/DTD/svg11.dtd">
<!-- Creator: CorelDRAW -->
<svg xmlns="http://www.w3.org/2000/svg" xml:space="preserve" width="100.342mm" height="95.0612mm" version="1.1" style="shape-rendering:geometricPrecision; text-rendering:geometricPrecision; image-rendering:optimizeQuality; fill-rule:evenodd; clip-rule:evenodd"
viewBox="0 0 10034 9506"
 xmlns:xlink="http://www.w3.org/1999/xlink">
 <defs>
  <style type="text/css">
   <![CDATA[
    .fil3 {fill:black}
    .fil1 {fill:#7EABD1}
    .fil2 {fill:#CCCCCC}
    .fil0 {fill:white}
   ]]>
  </style>
 </defs>
 <g id="__x0023_Layer_x0020_1">
  <metadata id="CorelCorpID_0Corel-Layer"/>
  <g id="busi0170.ai">
   <g>
    <polygon class="fil0" points="5612,2029 5872,2641 6555,1563 6815,2159 7578,1601 7763,2029 8173,2066 9766,5667 6685,7507 3978,9326 1027,5985 2104,4870 4833,4129 "/>
    <polygon class="fil1" points="3793,9217 4979,8341 7042,7360 8634,5931 9489,5466 8060,2008 7633,2008 8970,5315 7687,6413 6170,7637 4221,8400 3517,9012 "/>
    <polygon class="fil2" points="5093,7880 6392,7637 7410,6191 8840,5223 7096,1563 6484,2196 6149,1584 5499,2662 5164,2045 4535,4108 3517,4238 2142,4611 956,5373 1065,5537 733,5964 1513,6874 1270,7172 2938,8697 "/>
    <polygon class="fil3" points="4690,8907 5185,9506 5939,8957 7276,8412 7804,7884 10034,7461 9246,6124 9791,5948 9158,5881 7540,6761 7012,7218 7783,6337 9313,5315 7557,1442 6995,2096 7519,1760 9121,5243 7838,6036 7012,6882 7452,5705 8048,4506 6572,1496 6254,1882 5994,2586 6589,1811 7821,4472 7117,5772 6677,7356 6731,6107 6995,4875 5570,1903 5147,3043 4971,4120 5394,2674 5587,2146 6803,5000 6572,5897 6501,7410 5851,6090 5025,4347 5818,6283 6396,7553 5466,7725 3655,8555 1526,5440 2615,4648 4640,4120 3093,4347 1228,5315 3215,8186 1262,5793 1107,5914 2879,8165 1739,7042 1614,7180 3969,9347 3617,8819 4250,8500 6044,7834 4673,8714 4162,9133 "/>
    <polygon class="fil3" points="7909,2058 8152,1865 10017,5948 8894,6057 9615,5562 8119,2096 "/>
    <polygon class="fil3" points="4954,4275 5273,3592 5202,4472 5537,4066 5411,4770 5797,4539 5658,5122 5922,5067 5675,5809 "/>
    <polygon class="fil3" points="1454,4296 436,5419 1262,6673 0,5403 "/>
    <polygon class="fil3" points="50,6073 50,6476 1781,7951 "/>
    <polygon class="fil3" points="6061,1161 8064,880 9753,4506 8224,545 "/>
    <polygon class="fil3" points="7469,352 8647,247 9401,2515 8911,0 "/>
    <polygon class="fil0" points="3328,4573 4611,4405 3030,5017 4703,4665 3219,5260 4849,4963 3290,5650 5000,5260 3533,5910 5164,5537 3663,6245 5147,5910 4351,6451 5369,6451 4611,7025 5705,6970 3848,8249 1735,5520 2662,4778 "/>
    <polygon class="fil0" points="5684,3068 6262,5298 6316,6748 6522,4833 "/>
    <polygon class="fil0" points="6669,2548 7243,5000 7465,4426 "/>
   </g>
  </g>
 </g>
</svg>
